<?xml version="1.0" standalone="no"?>
<!DOCTYPE svg PUBLIC "-//W3C//DTD SVG 1.1//EN" "http://www.w3.org/Graphics/SVG/1.1/DTD/svg11.dtd" >
<!--
2013-9-30: Created.
-->
<svg>
<metadata>
Created by iconfont
</metadata>
<defs>

<font id="iconfont" horiz-adv-x="1024" >
  <font-face
    font-family="iconfont"
    font-weight="500"
    font-stretch="normal"
    units-per-em="1024"
    ascent="896"
    descent="-128"
  />
    <missing-glyph />
    
    <glyph glyph-name="icon_more" unicode="&#59691;" d="M512 896c282.752 0 512-229.248 512-512s-229.248-512-512-512S0 101.248 0 384 229.248 896 512 896z m0-42.666667C252.8 853.333333 42.666667 643.2 42.666667 384s210.133333-469.333333 469.333333-469.333333 469.333333 210.133333 469.333333 469.333333S771.2 853.333333 512 853.333333z m0-384a85.333333 85.333333 0 1 0 0-170.666666 85.333333 85.333333 0 0 0 0 170.666666z m-234.666667-21.333333a64 64 0 1 0 0-128 64 64 0 0 0 0 128z m469.333334 0a64 64 0 1 0 0-128 64 64 0 0 0 0 128z"  horiz-adv-x="1024" />

    
    <glyph glyph-name="icon_clock" unicode="&#59632;" d="M57.147138 312.818114c0 157.537438 86.781266 303.094453 227.576831 381.837572a467.850863 467.850863 0 0 0 455.153663 0c140.795565-78.74312 227.525633-224.248936 227.525633-381.837572 0-243.448331-203.769581-440.818114-455.153663-440.818114-251.332883 0-455.051266 197.369783-455.051266 440.818114zM729.79155 878.96988A52.324752 52.324752 0 0 0 802.032474 883.680132l204.793549-173.408938a48.484873 48.484873 0 0 0 4.812648-69.936997c-18.943403-20.63295-50.7888-22.680886-72.240924-4.659053l-204.793549 173.408938a48.433674 48.433674 0 0 0-4.863847 69.885798z m-434.879102 0a48.433674 48.433674 0 0 0-4.863847-69.885798l-204.793549-173.408938c-21.503323-18.021832-53.246323-15.973897-72.240924 4.659053a48.484873 48.484873 0 0 0 4.812648 69.936997l204.793549 173.460136a52.37595 52.37595 0 0 0 72.292123-4.76145zM461.102413 355.517569H362.955105c-27.442336 0-49.764832-19.148197-49.764833-42.699455 0-23.551258 22.322497-42.648257 49.764833-42.648256H461.102413v-92.669081c0-27.339939 22.936877-49.560039 51.198388-49.560039s51.198387 22.2201 51.198387 49.560039v92.669081h98.147308c27.442336 0 49.764832 19.096998 49.764833 42.648256 0 23.551258-22.322497 42.699455-49.764833 42.699455H563.499188v119.292242c0 27.339939-22.936877 49.50884-51.198387 49.508841s-51.198387-22.168902-51.198388-49.560039v-119.292242z"  horiz-adv-x="1024" />

    
    <glyph glyph-name="icon_filter" unicode="&#59690;" d="M960.06208 63.936a64 64 0 0 0 0-128h-256a64 64 0 1 0 0 128h256zM573.18208 832C645.50208 832 704.06208 774.72 704.06208 704c0-19.84-4.672-39.488-13.824-57.216L548.22208 432.832v-496.96H417.40608V463.04L573.18208 704H130.75008l155.84-240.96v-527.168H155.77408V432.832L13.75808 646.784a126.72 126.72 0 0 0 58.496 171.712A133.12 133.12 0 0 0 130.75008 832zM960.06208 255.936a64 64 0 0 0 0-128h-256a64 64 0 1 0 0 128h256z m0 192a64 64 0 0 0 0-128h-256a64 64 0 1 0 0 128h256z"  horiz-adv-x="1024" />

    
    <glyph glyph-name="icon_rank" unicode="&#59689;" d="M42.688-2.112h938.624a42.688 42.688 0 0 0 0-85.376H42.688a42.688 42.688 0 0 0 0 85.376z m939.392 518.272h-172.16a41.216 41.216 0 0 1-41.92-40.832v-331.392c0-22.72 18.56-40.896 41.856-40.896h172.224A41.216 41.216 0 0 1 1024 144V475.328a41.216 41.216 0 0 1-41.92 40.832z m-88.384-331.392c-27.968 0-51.2 4.544-65.152 18.176-14.016 13.632-23.296 36.288-23.296 68.096H870.4c0-13.632 0-27.264 4.672-31.808 0-4.48 9.28-9.088 13.952-9.088 9.28 0 13.952 4.544 18.56 13.632v22.72c0 13.632 0 18.176-4.608 27.264-4.672 4.48-9.28 4.48-18.56 4.48h-18.688V339.2h9.344c9.28 0 18.56 0 23.232 4.48 4.672 4.608 4.672 13.696 4.672 27.264 0 18.176-4.672 27.264-18.56 27.264-4.672 0-9.344 0-14.016-9.088 0-4.48-4.672-18.176-4.672-27.2h-60.48c0 49.92 27.904 77.184 79.104 77.184 27.968 0 51.2-4.544 65.152-18.176 9.344-9.088 18.624-27.264 18.624-49.92 0-13.632 0-22.72-9.28-27.264a31.424 31.424 0 0 0-27.968-18.176c27.968-4.48 41.92-22.72 41.92-54.464 9.28-59.008-18.56-86.272-79.104-86.272zM339.776 98.56h339.84a41.216 41.216 0 0 1 41.856 40.896V810.368A41.216 41.216 0 0 1 679.552 851.2H339.84a41.216 41.216 0 0 1-41.92-40.832v-666.432c0-22.72 18.624-45.44 41.92-45.44z m148.928 494.848c9.344 4.544 18.624 27.264 23.296 49.92h60.544v-331.392H484.096V529.792H428.16V584.32c27.904 0 46.528 4.544 60.48 9.088zM41.92 98.56h172.16A41.216 41.216 0 0 1 256 139.392V557.056a41.216 41.216 0 0 1-41.856 40.832H41.92A41.216 41.216 0 0 1 0 557.056v-413.12c0-22.72 18.56-45.44 41.92-45.44z m37.184 245.12l46.592 49.984c13.952 13.632 18.56 27.264 18.56 45.44 0 22.656-4.608 31.744-18.56 31.744-14.016 0-18.624-13.632-18.624-36.288v-13.632H46.528c0 31.744 4.672 54.464 18.624 68.096 9.344 18.176 32.64 27.2 65.152 27.2 32.64 0 51.2-9.024 69.824-22.656 9.344-13.632 13.952-31.808 13.952-54.464 0-31.808-9.28-59.072-32.576-81.728l-41.856-45.44-9.344-9.088c-4.608-4.48-4.608 0-4.608 0h83.776v-72.64H41.92c0 40.896 13.952 81.728 37.184 113.536z"  horiz-adv-x="1024" />

    
    <glyph glyph-name="icon_detail" unicode="&#59688;" d="M192 896h640a192 192 0 0 0 192-192v-640a192 192 0 0 0-192-192H192a192 192 0 0 0-192 192V704a192 192 0 0 0 192 192z m0-128a64 64 0 0 1-64-64v-640a64 64 0 0 1 64-64h640a64 64 0 0 1 64 64V704a64 64 0 0 1-64 64H192zM256 640h512v-128H256zM256 448h448v-128H256zM256 256h384v-128H256z"  horiz-adv-x="1024" />

    
    <glyph glyph-name="icon_data01" unicode="&#59683;" d="M512.00128-128a512.64 512.64 0 0 0-435.84 243.904l0.32 2.56s72.448 104.64 344.896 121.088v-99.136s1.664-23.04 20.48-30.08c0 0 20.864-7.68 33.984 5.44L764.16128 348.16s12.992 10.88 11.52 26.88c0 0 0.256 15.936-10.816 23.68L475.84128 632.96s-17.536 13.76-36.416 3.328c0 0-17.792-8.192-17.792-29.824v-101.888s-314.496-12.864-394.56-284.8A508.672 508.672 0 0 0 0.00128 384c0 281.92 226.816 512 508.8 512 281.856 0 512-230.08 515.2-512 0-281.92-230.08-512-512-512z"  horiz-adv-x="1024" />

    
    <glyph glyph-name="icon_data02" unicode="&#59686;" d="M743.67907 703.80696a47.103941 47.103941 0 0 1 46.463942 48.06394V847.93478c0 12.799984-4.927994 25.151969-13.631983 34.175957A44.927944 44.927944 0 0 1 743.67907 895.99872a44.927944 44.927944 0 0 1-32.767959-13.887983 49.407938 49.407938 0 0 1-13.695983-34.175957v-96.06388c0.447999-26.559967 21.119974-47.93594 46.463942-47.99994z m-231.42371 0a47.487941 47.487941 0 0 1 46.399942 48.06394V847.93478c0 12.799984-4.927994 25.151969-13.695983 34.175957A44.927944 44.927944 0 0 1 512.25536 895.99872a47.487941 47.487941 0 0 1-46.463942-47.99994v-96.12788c0.447999-26.559967 21.119974-47.93594 46.463942-47.99994z m-231.487711 0a47.167941 47.167941 0 0 1 46.399942 48.06394V847.93478c0 12.863984-4.991994 25.151969-13.695983 34.175957A44.927944 44.927944 0 0 1 280.639649 895.99872a44.927944 44.927944 0 0 1-32.703959-13.887983 49.343938 49.343938 0 0 1-13.695983-34.175957v-96.06388c0.447999-26.559967 21.119974-47.93594 46.399942-47.99994h0.128z m632.895209 95.615881h-77.055904v-48.06394c0-53.119934-41.599948-96.06388-92.863884-96.06388-51.199936 0-92.799884 43.007946-92.799884 96.06388v47.99994h-45.823942v-47.99994c0-53.119934-41.727948-96.06388-92.863884-96.06388-51.199936 0-92.863884 43.007946-92.863884 96.06388v47.99994h-46.335942v-47.99994c0-53.119934-41.599948-96.06388-92.863884-96.06388-51.199936 0-92.799884 43.007946-92.799884 96.06388v47.99994H110.399862a44.991944 44.991944 0 0 1-32.703959-13.887983A49.343938 49.343938 0 0 1 63.99992 751.358901v-831.358961c0-26.495967 20.607974-47.99994 46.399942-47.99994h803.198996a47.167941 47.167941 0 0 1 46.399942 47.99994V751.358901c0 12.799984-4.991994 25.087969-13.695983 34.111957a44.991944 44.991944 0 0 1-32.703959 13.951983zM270.271662 423.67931h261.439673c24.25597 0 43.839945-20.543974 43.839946-45.951942 0-25.407968-19.583976-45.951943-43.839946-45.951943H270.271662c-24.25597 0-43.903945 20.543974-43.903945 45.951943 0 25.407968 19.647975 45.951943 43.903945 45.951942z m0-247.29569h483.327396c24.19197 0 43.839945-20.543974 43.839945-45.951943 0-25.407968-19.647975-45.951943-43.839945-45.951943H270.335662c-24.25597 0-43.903945 20.543974-43.903945 45.951943 0 25.407968 19.647975 45.951943 43.903945 45.951943h-0.064z"  horiz-adv-x="1024" />

    
    <glyph glyph-name="icon_data03" unicode="&#59687;" d="M183.552 303.104v-228.032h286.4c21.824-55.616 58.88-103.68 106.176-139.072H137.6a45.888 45.888 0 0 0-45.44 39.168l-0.576 7.296V294.336a158.208 158.208 0 0 1 45.888-2.24c4.48 0.32 8.832 1.088 13.056 1.792l1.472 0.192 1.344 0.256 5.888 1.408c8.256 1.92 16.384 4.288 24.256 7.36zM768.512 448A255.68 255.68 0 0 0 1024 192.512a256 256 0 0 0-512-1.024A256.512 256.512 0 0 0 768.512 448z m-112.512-288a16 16 0 0 1-16-16V128a64 64 0 0 1 64-64h16a16 16 0 1 1 0 32H704a32 32 0 0 0-32 32v16a16 16 0 0 1-16 16z m224 0a16 16 0 0 1-16-16V128a32 32 0 0 0-32-32h-16a16 16 0 1 1 0-32H832a64 64 0 0 1 64 64v16a16 16 0 0 1-16 16z m-32 48h-160a16 16 0 1 1 0-32h160a16 16 0 1 1 0 32zM832 320h-16a16 16 0 1 1 0-32H832a32 32 0 0 0 32-32v-16a16 16 0 1 1 32 0V256a64 64 0 0 1-64 64z m-112 0H704a64 64 0 0 1-64-64v-16a16 16 0 1 1 32 0V256a32 32 0 0 0 32 32h16a16 16 0 1 1 0 32z m173.12 372.992l86.08-231.68c0-8.96-0.96-17.664-2.816-26.24a320 320 0 0 1-461.952-48.192 123.456 123.456 0 0 0-24.704 74.432 123.008 123.008 0 0 0-122.432-123.648 123.008 123.008 0 0 0-122.432 123.648 123.072 123.072 0 0 0-122.432-122.304c-64 0-116.544 49.472-121.984 112.64L0 461.312l86.144 231.744h806.976zM826.24 832c25.344 0 45.76-20.736 45.888-46.336a46.528 46.528 0 0 0-38.656-45.76l-7.232-0.576H153.088a45.76 45.76 0 0 0-41.6 27.008 32.96 32.96 0 0 0-2.304 5.504 56.448 56.448 0 0 0-2.112 13.824 46.464 46.464 0 0 0 38.72 45.76L152.96 832h673.28z"  horiz-adv-x="1024" />

    
    <glyph glyph-name="btn_plus" unicode="&#59629;" d="M512-128c282.7776 0 512 229.2224 512 512S794.7776 896 512 896 0 666.7776 0 384s229.2224-512 512-512z m0 25.6C243.3792-102.4 25.6 115.3792 25.6 384S243.3792 870.4 512 870.4s486.4-217.7792 486.4-486.4-217.7792-486.4-486.4-486.4zM256 409.6m25.6 0l460.8 0q25.6 0 25.6-25.6l0 0q0-25.6-25.6-25.6l-460.8 0q-25.6 0-25.6 25.6l0 0q0 25.6 25.6 25.6Z"  horiz-adv-x="1024" />

    
    <glyph glyph-name="icon_cika" unicode="&#59678;" d="M870.4 844.8a153.6 153.6 0 0 0 153.6-153.6v-614.4a153.6 153.6 0 0 0-153.6-153.6H153.6a153.6 153.6 0 0 0-153.6 153.6V691.2a153.6 153.6 0 0 0 153.6 153.6h716.8z m51.2-409.6H102.4v-358.4a51.2 51.2 0 0 1 51.2-51.2h716.8a51.2 51.2 0 0 1 51.2 51.2V435.2zM409.6 384l153.6-153.6-153.6-153.6H307.2l153.6 153.6-153.6 153.6h102.4z m153.6 0l153.6-153.6-153.6-153.6H460.8l153.6 153.6-153.6 153.6h102.4z m-307.2 0l153.6-153.6-153.6-153.6H153.6l153.6 153.6-153.6 153.6h102.4z m614.4 358.4H153.6a51.2 51.2 0 0 1-51.2-51.2v-153.6h819.2V691.2a51.2 51.2 0 0 1-51.2 51.2zM256 691.2v-102.4H153.6V691.2h102.4z"  horiz-adv-x="1024" />

    
    <glyph glyph-name="icon_user" unicode="&#59680;" d="M512 384a256 256 0 1 1 0 512 256 256 0 0 1 0-512z m0 102.4a153.6 153.6 0 1 0 0 307.2 153.6 153.6 0 0 0 0-307.2zM339.968 332.8h344.064a298.2912 298.2912 0 0 0 286.8224-216.32l13.8752-48.64A153.6 153.6 0 0 0 837.12-128H186.88a153.6 153.6 0 0 0-147.6608 195.7888l13.8752 48.64A298.2912 298.2912 0 0 0 339.968 332.8z m0-102.4a195.8912 195.8912 0 0 1-188.3136-142.08l-13.9264-48.64A51.2 51.2 0 0 1 186.88-25.6H837.12a51.2 51.2 0 0 1 49.2032 65.28l-13.9264 48.64A195.8912 195.8912 0 0 1 684.032 230.4H339.968z"  horiz-adv-x="1024" />

    
    <glyph glyph-name="icon_mobilephone" unicode="&#59681;" d="M307.2 896h409.6a153.6 153.6 0 0 0 153.6-153.6v-716.8a153.6 153.6 0 0 0-153.6-153.6H307.2a153.6 153.6 0 0 0-153.6 153.6V742.4a153.6 153.6 0 0 0 153.6 153.6z m0-102.4a51.2 51.2 0 0 1-51.2-51.2v-716.8a51.2 51.2 0 0 1 51.2-51.2h409.6a51.2 51.2 0 0 1 51.2 51.2V742.4a51.2 51.2 0 0 1-51.2 51.2H307.2zM512 76.8m-51.2 0a51.2 51.2 0 1 1 102.4 0 51.2 51.2 0 1 1-102.4 0ZM204.8 230.4h614.4v-51.2H204.8z"  horiz-adv-x="1024" />

    
    <glyph glyph-name="icon_balance" unicode="&#59682;" d="M631.193064 714.18501C818.379421 647.62531 972.797926 436.733459 972.797926 234.647968 972.797926-9.216535 836.606539-128 512-128s-460.797926 118.732266-460.797926 362.647968C51.202074 436.733459 205.620579 647.676509 392.755737 714.23621h238.437327z m-219.442213-102.399539C269.927489 552.905736 153.601613 385.636089 153.601613 234.647968 153.601613 48.280807 245.146801-25.600461 512-25.600461c266.801999 0 358.398387 73.830068 358.398387 260.248429 0 151.03932-116.377076 318.206568-258.149238 377.137503H411.750851zM512 895.944192c83.814023 0.409598 176.485606-19.96791 176.485606-19.96791l0.921596-1.945591c11.315149-4.556779 18.739116-15.61593 18.739115-27.903875a29.951865 29.951865 0 0 0-1.433593-7.372766l1.382394-2.918387-8.243163-10.495953-0.511998-0.665597-69.682886-89.087599H394.394129L324.813642 824.571713a17.203123 17.203123 0 0 0-1.331194 1.689593l-7.526366 9.625557 1.331194 2.713587a30.361463 30.361463 0 0 0-1.484793 7.577566c0 12.287945 7.475166 23.398295 18.841515 27.903875l0.921596 1.894391S431.92356 895.688193 512 895.995392zM639.692225 152.677137h-79.206043v-40.447818h-0.460798a49.714976 49.714976 0 0 0-23.398295-53.196561 48.486182 48.486182 0 0 0-49.305378 0 49.714976 49.714976 0 0 0-23.347095 53.247761h-0.819196v40.345418H384.768573v0.0512H384.512574a39.884621 39.884621 0 0 0-39.014225 40.03822c0 21.913501 17.356722 39.782221 39.014225 40.089419h0.204799v0.1024h78.335647v39.93582h-78.335647v0.1024H384.512574a39.884621 39.884621 0 0 0-38.911825 40.03822c0 21.862302 17.305522 39.731021 38.911825 40.089419h0.204799v0.1024H456.192251a19.353513 19.353513 0 0 0 3.379185 7.065568l-88.063604 89.906795c-10.803151 11.16155-7.321567 32.767853 7.987164 48.434982 15.206332 15.56473 36.403036 19.199914 47.308587 8.089564l86.015613-87.961204 79.666842 86.783609c12.390344 13.823938 37.529431 10.495953 52.889362-5.375976 15.257531-15.769529 22.988697-30.156664 7.833565-47.564585l-92.620384-96.767565c-0.1024-0.921596 0.204799-1.740792 0-2.611188h79.052445v-0.1024a39.833421 39.833421 0 0 0 38.963024-40.089419 39.833421 39.833421 0 0 0-38.911825-40.03822v-0.1024h-79.257243v-39.93582h79.206044v-0.1024a39.833421 39.833421 0 0 0 39.014224-40.089419c0-21.913501-17.407922-39.731021-39.014224-40.03822z"  horiz-adv-x="1024" />

    
    <glyph glyph-name="btn_transfer" unicode="&#59668;" d="M927.235584 710.8096a325.2224 325.2224 0 0 1-235.52 100.864H447.901184v32.4608C447.901184 878.1824 424.553984 896 401.513984 896a55.808 55.808 0 0 1-31.488-10.24L224.361984 788.224a53.8624 53.8624 0 0 1-25.4976-44.8c0.6144-18.3296 10.5472-35.1232 26.368-44.3904l144.9984-92.928c9.1136-6.144 19.7632-9.472 30.72-9.6256 23.296 0 46.8992 17.92 46.8992 52.1728v32.1024h243.8144c111.6672 0 202.5472-94.8736 202.5472-211.5584 0-19.3024-2.5088-38.5536-7.4752-57.1904a65.5872 65.5872 0 0 1 62.5664-82.688 65.1264 65.1264 0 0 1 62.6176 48.3328A353.5872 353.5872 0 0 1 1024.003584 469.0944a346.2144 346.2144 0 0 1-96.768 241.7152z m-61.696-641.792l-144.9472 92.8768a57.1392 57.1392 0 0 1-30.6688 9.5744c-23.296 0-46.8992-17.92-46.8992-52.1728v-32.1024H332.342784c-111.6672 0-202.5472 94.9248-202.5472 211.5584a217.2416 217.2416 0 0 0 32.768 115.3536 66.304 66.304 0 0 1-19.0464 89.344 64.2048 64.2048 0 0 1-48.6912 9.216c-17.408-3.5328-32.6144-13.9264-42.1376-28.8256A349.2864 349.2864 0 0 1 0.003584 298.752a345.6 345.6 0 0 1 96.768-241.4592 324.9152 324.9152 0 0 1 235.5712-100.864h310.6816v-32.4608c0-34.048 23.3472-51.8656 46.3872-51.8656 11.264 0.1536 22.2208 3.7376 31.3856 10.24l145.6128 97.4848a51.3536 51.3536 0 0 1-0.8704 89.1904z"  horiz-adv-x="1024" />

    
    <glyph glyph-name="icon_arrowup" unicode="&#59570;" d="M551.3216 644.096l402.7392-483.328a51.2 51.2 0 0 0-39.424-83.968H109.3632a51.2 51.2 0 0 0-39.424 83.968l402.7392 483.328a51.2 51.2 0 0 0 78.6432 0z"  horiz-adv-x="1024" />

    
    <glyph glyph-name="icon_arrowdown" unicode="&#59572;" d="M551.3216 123.904l402.7392 483.328A51.2 51.2 0 0 1 914.6368 691.2H109.3632a51.2 51.2 0 0 1-39.424-83.968l402.7392-483.328a51.2 51.2 0 0 1 78.6432 0z"  horiz-adv-x="1024" />

    
    <glyph glyph-name="sousuo" unicode="&#59621;" d="M1007.522825-32.232978l-204.58882 204.140862A448.725932 448.725932 0 0 1 896.557228 446.762116a447.958004 447.958004 0 0 1-131.187701 317.666219A447.89401 447.89401 0 0 1 622.790893 860.8033 447.702028 447.702028 0 0 1 448.279254 896 446.166172 446.166172 0 0 1 131.188981 764.172359 447.958004 447.958004 0 0 1 0.00128 446.50614a447.958004 447.958004 0 0 1 131.187701-317.666219 447.958004 447.958004 0 0 1 142.450645-96.374965 443.7344 443.7344 0 0 1 174.575634-35.324688 445.718214 445.718214 0 0 1 275.814142 94.967097l204.26885-203.756898a56.378714 56.378714 0 0 1 79.288567 0 56.378714 56.378714 0 0 1-0.127988 79.352561z m-559.307565 121.268631c-196.461582 0-356.446583 160.368965-356.446583 357.598475 0 197.22951 159.857013 357.598475 356.446583 357.598475s356.574571-160.368965 356.574571-357.598475c0-197.22951-159.985001-357.598475-356.510577-357.598475z"  horiz-adv-x="1024" />

    
    <glyph glyph-name="icon_time" unicode="&#59568;" d="M512-128A512 512 0 1 0 512 896a512 512 0 0 0 0-1024z m0 128A384 384 0 1 1 512 768a384 384 0 0 1 0-768z m212.224 316.736a64 64 0 0 0-40.448-121.472l-192 64A64 64 0 0 0 448 320V576a64 64 0 0 0 128 0v-209.92l148.224-49.344z"  horiz-adv-x="1024" />

    
    <glyph glyph-name="icon_add" unicode="&#59676;" d="M512 896a102.4 102.4 0 0 0 102.4-102.4v-307.2h307.2a102.4 102.4 0 1 0 0-204.8h-307.2v-307.2a102.4 102.4 0 1 0-204.8 0v307.2H102.4a102.4 102.4 0 1 0 0 204.8h307.2V793.6a102.4 102.4 0 0 0 102.4 102.4z"  horiz-adv-x="1024" />

    
    <glyph glyph-name="icon_close12" unicode="&#59677;" d="M511.960323 502.433915L880.998389 871.471981a83.705513 83.705513 0 1 0 118.433488-118.433488L630.393811 384.000427l369.038066-369.038067a83.705513 83.705513 0 1 0-118.433488-118.433488L511.960323 265.566939l-369.038066-369.038067a83.705513 83.705513 0 1 0-118.433488 118.433488L393.526835 384.000427 24.488769 753.038493A83.705513 83.705513 0 1 0 142.922257 871.471981L511.960323 502.433915z"  horiz-adv-x="1024" />

    
    <glyph glyph-name="btn_reset" unicode="&#59619;" d="M512 896c282.752 0 512-229.248 512-512s-229.248-512-512-512S0 101.248 0 384 229.248 896 512 896zM370.133333 585.088a41.856 41.856 0 1 1-59.221333-59.221333L452.778667 384l-141.866667-141.866667a41.856 41.856 0 1 1 59.221333-59.221333L512 324.778667l141.866667-141.866667a41.856 41.856 0 1 1 59.221333 59.221333L571.221333 384l141.866667 141.866667a41.856 41.856 0 1 1-59.221333 59.221333L512 443.221333z"  horiz-adv-x="1024" />

    
    <glyph glyph-name="btn_add1" unicode="&#59684;" d="M512 896c282.76736 0 512-229.23264 512-512S794.76736-128 512-128 0 101.23264 0 384 229.23264 896 512 896z m0-266.24a40.96 40.96 0 0 1-40.96-40.96v-163.84h-163.84a40.96 40.96 0 1 1 0-81.92h163.84v-163.84a40.96 40.96 0 1 1 81.92 0v163.84h163.84a40.96 40.96 0 1 1 0 81.92h-163.84v163.84a40.96 40.96 0 0 1-40.96 40.96z"  horiz-adv-x="1024" />

    
    <glyph glyph-name="btn_subtract" unicode="&#59685;" d="M512 896c282.76736 0 512-229.23264 512-512S794.76736-128 512-128 0 101.23264 0 384 229.23264 896 512 896z m0-40.96C251.84256 855.04 40.96 644.15744 40.96 384s210.88256-471.04 471.04-471.04 471.04 210.88256 471.04 471.04S772.15744 855.04 512 855.04zM266.24 424.96m40.96 0l409.6 0q40.96 0 40.96-40.96l0 0q0-40.96-40.96-40.96l-409.6 0q-40.96 0-40.96 40.96l0 0q0 40.96 40.96 40.96Z"  horiz-adv-x="1024" />

    
    <glyph glyph-name="btn_edit_linear" unicode="&#954817;" d="M42.4448-56.729600000000005H981.504c23.4496 0 42.4448-15.9744 42.4448-35.6352 0-19.6608-18.9952-35.6352-42.4448-35.6352H42.496C18.944-128 0-112.02560000000005 0-92.36479999999995c0 19.6608 18.9952 35.6352 42.4448 35.6352z m18.176 142.4384h10.0352l222.208 71.2192c5.0688 0 10.0864 5.0688 15.1552 10.24L813.056 675.84a39.0144 39.0144 0 0 1 10.0864 25.4464 39.0144 39.0144 0 0 1-10.0864 25.4976L656.384 884.5312c-15.1552 15.3088-35.328 15.3088-50.5344 0L101.0176 375.808c-5.0688-5.12-5.0688-10.24-10.1376-15.36l-70.656-223.8464c-5.0176-15.2064 0-25.3952 10.0864-35.584 10.0864-10.1888 20.224-15.2576 30.3104-15.2576z"  horiz-adv-x="1024" />

    
    <glyph glyph-name="icon_call" unicode="&#954641;" d="M395.553181 589.899767L287.448965 478.357866A594.207478 594.207478 0 0 1 602.47255 166.04054299999996l94.134051 94.353476c92.15921-14.774731 183.221287-35.839693 272.527949-63.048602 43.153916-25.526638 63.999451-76.653057 51.053277-125.073214A254.315534 254.315534 0 0 0 786.352117-127.99122299999999c-146.28446-1.097133-360.810622 109.274492-514.482447 270.845679C118.124702 304.279358-19.821544 510.394162 2.340551 686.081799A230.763736 230.763736 0 0 0 213.941023 894.976009c35.108271 5.119956 70.289683-9.289063 91.866642-37.521964a1499.78143 1499.78143 0 0 0 89.745516-267.554278z"  horiz-adv-x="1024" />

    
    <glyph glyph-name="btn_leave" unicode="&#59679;" d="M768 384a256 256 0 1 0 0-512 256 256 0 0 0 0 512z m-228.9664-51.2A306.0736 306.0736 0 0 1 460.8 128c0-78.6944 29.5936-150.528 78.2848-204.8H51.2a51.2 51.2 0 0 0-51.2 51.2v153.6a204.8 204.8 0 0 0 204.8 204.8h334.2336zM870.4 179.2h-204.8a51.2 51.2 0 0 1 0-102.4h204.8a51.2 51.2 0 0 1 0 102.4zM460.8 896a256 256 0 1 0 0-512A256 256 0 0 0 460.8 896z"  horiz-adv-x="1024" />

    
    <glyph glyph-name="icon_order_status08" unicode="&#59675;" d="M518.7584 384l12.8-0.512c72.448-5.376 136.192-44.3904 168.4992-102.2976 23.3472-49.8688 22.528-116.5824-4.096-165.12l-6.0416-10.24v-2.3552l-1.8944-2.56-7.6288-10.4448-157.9008-213.6064a13.3632 13.3632 0 0 0-18.432-2.048l-2.048 2.048-157.184 212.1216-8.8064 11.9808-1.4336 2.0992v2.1504a169.9328 169.9328 0 0 0-1.536 182.6816c35.072 56.9344 100.6592 93.3376 173.056 96l12.6464 0.1024z m313.2416-24.1664c8.448-3.072 17.0496-5.632 25.9072-7.4752l5.4784-1.3824h2.9184c4.4544-1.024 8.96-1.6384 13.568-1.8432h15.7696c10.752 0.0512 21.504 1.024 32.1024 3.0208v-418.2016a46.1824 46.1824 0 0 0-14.0288-33.0752 48.4864 48.4864 0 0 0-33.8432-13.6704H599.552l83.5072 122.8288c2.2528 3.328 4.4544 6.5024 6.5024 9.728l1.1776 1.792c1.4848 2.048 2.816 4.1472 3.9936 6.3488h137.216v331.9296z m-639.488-331.776h137.2672c1.2288-2.3552 2.6112-4.608 4.096-6.8608l3.6864-5.5808 3.8912-5.4272 83.2-122.88H144.1792a48.4864 48.4864 0 0 0-34.6112 14.1312 46.1824 46.1824 0 0 0-13.6192 34.1504v417.9456c10.5984-1.9968 21.3504-2.9696 32.1024-3.0208h15.9744c4.4032 0.512 9.0624 1.8432 13.5168 1.8432h3.584l6.1952 1.3312a183.808 183.808 0 0 1 25.1904 7.3728v-332.9536z m291.4304 222.6176a76.8 76.8 0 1 1 56.064-142.9504 76.8 76.8 0 0 1-56.064 142.9504z m450.1504 504.7296L1024 521.216c0-69.0176-57.344-124.9792-128-124.9792S768 452.1984 768 521.216c0-69.0176-57.344-124.9792-128-124.9792-70.7072 0-128 55.9616-128 124.9792C512 452.1984 454.656 396.288 384 396.288 313.2416 396.2368 256 452.1984 256 521.216c-1.3312-68.096-58.2144-122.7264-128-122.7264S1.28 453.12 0 521.216l90.624 234.1888h843.4688zM863.5904 896c26.5216 0 48.0256-20.992 48.0256-46.8992s-21.504-46.9504-48.0256-46.9504H160.1024a47.5136 47.5136 0 0 0-48.0768 46.9504c0 25.9072 21.504 46.8992 48.0768 46.8992h703.488z"  horiz-adv-x="1024" />

    
    <glyph glyph-name="icon_selector_disable" unicode="&#59674;" d="M512-128c282.752 0 512 229.248 512 512S794.752 896 512 896 0 666.752 0 384s229.248-512 512-512z m0 85.333333C276.352-42.666667 85.333333 148.352 85.333333 384S276.352 810.666667 512 810.666667s426.666667-191.018667 426.666667-426.666667-191.018667-426.666667-426.666667-426.666667z"  horiz-adv-x="1024" />

    
    <glyph glyph-name="duihao" unicode="&#58926;" d="M126.976 443.008L426.24 214.144 1171.584 873.216s49.92 43.776 93.568 9.6c13.056-10.24 28.032-39.424-5.76-85.12L481.28-77.312s-59.648-78.336-130.432 0.896l-335.744 435.2s-39.808 58.88 9.984 94.208c16.896 11.904 55.04 30.336 101.888-9.984z"  horiz-adv-x="1280" />

    
    <glyph glyph-name="icon_weixin" unicode="&#59643;" d="M363.885714 174.445714c-45.714286 0-81.92 9.947429-127.561143 19.748572l-127.561142-66.048 36.132571 113.883428C53.467429 307.931429 0 393.728 0 499.419429 0 680.813714 163.986286 822.857143 363.885714 822.857143c178.176 0 335.579429-113.883429 367.104-267.190857-10.971429 1.536-23.698286 1.536-34.742857 1.536-173.275429 0-308.882286-135.314286-308.882286-301.933715 0-28.086857 4.681143-54.491429 10.971429-79.286857-12.434286 0.219429-23.405714-1.536-34.377143-1.536z m532.48-133.632L923.355429-54.857143l-99.474286 57.782857c-36.132571-9.947429-72.557714-19.675429-108.690286-19.675428-173.348571 0-308.882286 123.830857-308.882286 275.602285 0 151.698286 135.314286 275.602286 308.882286 275.602286C879.104 534.454857 1024 410.550857 1024 258.852571c0-84.406857-53.540571-160.182857-127.561143-217.965714zM185.782857 608.402286c0-32.768 25.380571-59.392 56.685714-59.392 31.305143 0 56.685714 26.624 56.685715 59.392 0 32.768-25.380571 59.392-56.685715 59.392-31.305143 0-56.685714-26.624-56.685714-59.392z m253.659429 1.536c0-21.211429 10.752-40.740571 28.306285-51.346286 17.554286-10.678857 39.204571-10.678857 56.758858 0a59.830857 59.830857 0 0 1 28.306285 51.346286 59.830857 59.830857 0 0 1-28.306285 51.419428 54.418286 54.418286 0 0 1-56.758858 0 59.830857 59.830857 0 0 1-28.306285-51.419428z m141.750857-265.581715c0-22.820571 17.554286-41.252571 39.350857-41.252571a40.228571 40.228571 0 0 1 39.350857 41.252571 40.228571 40.228571 0 0 1-39.350857 41.179429 40.374857 40.374857 0 0 1-39.350857-41.179429z m200.118857-3.364571c0-14.628571 7.387429-28.306286 19.748571-35.620571 12.214857-7.314286 27.209143-7.314286 39.277715 0 12.288 7.314286 19.748571 21.065143 19.748571 35.620571a41.106286 41.106286 0 0 1-19.748571 35.693714 38.034286 38.034286 0 0 1-39.350857 0 41.618286 41.618286 0 0 1-19.675429-35.693714z"  horiz-adv-x="1024" />

    
    <glyph glyph-name="btn_card_ma-copy" unicode="&#59673;" d="M745.6-128v92.8h92.8V-128h-92.8z m185.6 0v92.8H1024V-128h-92.8z m0 371.2v92.8H1024v-278.4h-278.4v92.8h-92.8V-128h-92.8V336h278.4v-92.8h92.8zM0 432V896h464v-464H0z m560 0V896H1024v-464H560zM0-128V336h464V-128H0z m92.8 652.8h278.4V803.2H92.8v-278.4z m560 0h278.4V803.2h-278.4v-278.4zM92.8-35.200000000000045h278.4v278.4H92.8v-278.4z m92.8 92.8v92.8h92.8v-92.8H185.6z m0 560V710.4h92.8v-92.8H185.6z m560 0V710.4h92.8v-92.8h-92.8z"  horiz-adv-x="1024" />

    
    <glyph glyph-name="tabbar06" unicode="&#59672;" d="M998.493091 600.669091c12.520727 0 23.04-8.192 25.134545-19.083636l0.372364-4.235637v-4.654545h-0.046545l0.046545-2.420364c-26.437818-4.654545-46.638545-25.786182-47.243636-51.2 0.558545-23.505455 17.687273-43.194182 41.239272-49.803636l6.004364-1.396364v-24.948364h-0.046545l0.046545-2.373818c-26.437818-4.654545-46.638545-25.786182-47.243636-51.2 0.558545-23.505455 17.687273-43.194182 41.239272-49.850182l6.004364-1.396363v-25.088h-0.046545l0.046545-2.373818c-26.437818-4.701091-46.638545-25.786182-47.243636-51.2 0.558545-23.505455 17.687273-43.194182 41.239272-49.850182l6.004364-1.396364v-24.901818h-0.046545l0.046545-2.373818c-26.437818-4.701091-46.638545-25.786182-47.243636-51.2 0.558545-23.505455 17.687273-43.194182 41.239272-49.850182l6.004364-1.396364v-24.901818h-0.046545l0.046545-2.373818c-26.437818-4.701091-46.638545-25.786182-47.243636-51.2 0.558545-23.505455 17.687273-43.194182 41.239272-49.850182l6.004364-1.396363V-58.228364c0-11.403636-9.029818-20.898909-20.945455-22.853818l-4.561454-0.372363H791.272727V600.715636h207.220364zM744.727273-81.314909H25.506909c-12.567273 0-22.946909 8.192-25.134545 19.037091L0-58.088727V-53.527273c26.903273 4.747636 47.243636 26.437818 47.243636 52.410182 0 24.110545-17.454545 44.450909-41.565091 51.106909L0 51.293091v24.901818c26.903273 4.747636 47.243636 26.530909 47.243636 52.503273 0 24.110545-17.454545 44.450909-41.565091 51.106909L0 181.108364v24.901818c26.903273 4.747636 47.243636 26.437818 47.243636 52.410182 0 24.110545-17.454545 44.450909-41.565091 51.106909L0 310.830545v24.901819c26.903273 4.840727 47.243636 26.530909 47.243636 52.503272 0 24.110545-17.454545 44.450909-41.565091 51.106909L0 440.645818v24.901818c26.903273 4.747636 47.243636 26.437818 47.243636 52.410182 0 24.110545-17.454545 44.450909-41.565091 51.106909L0 570.368v4.561455c0 11.496727 9.029818 20.992 20.945455 22.993454l4.561454 0.372364H744.727273v-679.610182z m-171.287273 500.084364h-38.074182a24.064 24.064 0 0 1-15.778909-7.354182l-2.048-2.606546-197.632-303.243636a8.192 8.192 0 0 1-1.954909-4.980364c0-2.373818 1.536-4.142545 4.375273-4.747636l2.373818-0.232727h38.074182a25.181091 25.181091 0 0 1 15.546182 6.842181l2.792727 3.118546 197.632 303.243636a8.192 8.192 0 0 1 1.442909 4.468364c0 2.978909-2.373818 5.492364-6.749091 5.492364z m-26.530909-141.405091h-1.396364c-48.686545 0-77.125818-33.373091-77.125818-89.646546 0-57.716364 30.813091-90.624 76.613818-90.624 46.312727 0 77.125818 32.861091 77.125818 87.645091 0 25.879273-5.771636 47.802182-17.826909 64.698182-13.032727 18.432-32.302545 27.927273-57.344 27.927273z m-1.861818-52.317091c15.36 0 22.621091-12.427636 22.621091-37.841455 0-4.980364-0.465455-10.426182-1.442909-14.894545-3.863273-18.432-12.567273-22.434909-21.224728-22.434909-15.406545 0-22.155636 11.962182-22.155636 37.329454 0 25.925818 7.726545 37.841455 22.155636 37.841455z m-189.952 192.232727h-1.442909c-47.243636 0-77.125818-32.395636-77.125819-90.158545 0-58.228364 30.347636-90.112 76.613819-90.112 23.645091 0 41.937455 7.959273 56.413091 23.924363 13.963636 15.406545 20.712727 36.817455 20.712727 63.208727 0 53.76-27.461818 93.090909-75.170909 93.09091z m-1.954909-52.782545c15.453091 0 22.667636-12.474182 22.667636-37.376 0-32.349091-13.498182-37.841455-22.667636-37.841455-7.214545 0-12.055273 2.513455-15.406546 7.447273-4.328727 6.050909-6.749091 16.477091-6.749091 30.394182 0 25.413818 7.726545 37.376 22.155637 37.376z m575.162181 261.352727v-0.093091l-0.372363 0.139636h0.372363z m-63.860363 212.712727l1.768727-3.537454 1.489455-4.00291c-21.969455-11.915636-32.442182-36.770909-23.458909-59.48509 8.192-21.085091 30.347636-33.885091 53.573818-33.047273l5.864727 0.465454 8.517818-21.783272c-21.969455-11.962182-32.442182-36.770909-23.458909-59.531637 5.771636-14.848 18.571636-25.6 33.745455-30.394182l5.445818-1.349818H150.946909l46.08 14.941091 211.223273 68.561455 1.303273 0.372363 213.876363 69.445819 12.8 4.18909 199.586909 64.744728a24.855273 24.855273 0 0 0 28.625455-9.541818z"  horiz-adv-x="1024" />

    
    <glyph glyph-name="tabbar05" unicode="&#59671;" d="M700.725574 886.06231l0.093089-0.046544a43.751713 43.751713 0 0 0 6.050769-61.578209L639.380087 742.379823h256.599143A127.997033 127.997033 0 0 0 1023.976262 614.38279v-115.197329c0-35.373725-28.671335-63.998516-63.998516-63.998517H921.578636v-435.189911A127.997033 127.997033 0 0 0 793.581603-128H230.394659a127.997033 127.997033 0 0 0-127.997033 127.997033V435.186944h-38.39911C28.624791 435.186944 0 463.85828 0 499.185461V614.38279A127.997033 127.997033 0 0 0 127.997033 742.379823h256.226787L316.827564 824.437557A43.751713 43.751713 0 0 0 384.363453 880.011542L497.419742 742.379823h28.717879L639.147365 880.011542a43.751713 43.751713 0 0 0 61.578209 6.050768zM488.436677 368.163043l-41.191772-85.176207c-5.492236-5.445692-13.730591-13.684046-21.968945-13.684046l-93.368018-13.730591-16.476709-8.238354a26.530294 26.530294 0 0 1 0-38.445655l68.652954-65.906835c5.492236-5.492236 10.984473-16.476709 8.238355-24.715064l-16.476709-93.368017c0-5.492236 0-10.984473 2.746118-16.476709 8.238354-13.730591 24.668519-19.222827 38.445654-10.984473l82.383545 43.937891a39.841985 39.841985 0 0 0 30.2073-2.792663l82.383544-43.891346c5.492236-2.792663 10.984473-2.792663 16.476709-2.792663 13.730591 2.792663 24.715063 19.269371 21.968945 32.999963l-16.476708 93.368017c0 8.238354 2.746118 19.222827 8.238354 24.668519l65.906836 65.95338c5.492236 5.492236 8.238354 10.984473 8.238354 16.476709 2.746118 13.730591-8.238354 27.461182-21.968945 30.2073l-93.368017 13.730591c-10.984473 0-19.222827 5.492236-21.968946 13.730591l-41.191772 85.129662a33.093051 33.093051 0 0 1-13.730591 13.730591c-13.730591 5.492236-30.2073 0-35.699536-13.730591z"  horiz-adv-x="1024" />

    
    <glyph glyph-name="btn_add_liner" unicode="&#59670;" d="M512-128c282.752 0 512 229.248 512 512S794.752 896 512 896 0 666.752 0 384s229.248-512 512-512z m0 85.333333C276.352-42.666667 85.333333 148.352 85.333333 384S276.352 810.666667 512 810.666667s426.666667-191.018667 426.666667-426.666667-191.018667-426.666667-426.666667-426.666667zM512 640a42.666667 42.666667 0 0 0 42.666667-42.666667v-170.666666h170.666666a42.666667 42.666667 0 0 0 0-85.333334h-170.666666v-170.666666a42.666667 42.666667 0 0 0-85.333334 0v170.666666H298.666667a42.666667 42.666667 0 0 0 0 85.333334h170.666666V597.333333a42.666667 42.666667 0 0 0 42.666667 42.666667z"  horiz-adv-x="1024" />

    
    <glyph glyph-name="btn_add" unicode="&#59624;" d="M512 896c282.7776 0 512-229.2224 512-512s-229.2224-512-512-512S0 101.2224 0 384 229.2224 896 512 896z m0-256a25.6 25.6 0 0 1-25.6-25.6v-204.8h-204.8a25.6 25.6 0 1 1 0-51.2h204.8v-204.8a25.6 25.6 0 1 1 51.2 0v204.8h204.8a25.6 25.6 0 1 1 0 51.2h-204.8v204.8a25.6 25.6 0 0 1-25.6 25.6z"  horiz-adv-x="1024" />

    
    <glyph glyph-name="btn_close" unicode="&#59625;" d="M512.000769 455.062993L938.220524 881.282747a50.224814 50.224814 0 1 0 71.062224-71.062224L583.062994 384.000768l426.219754-426.219755a50.224814 50.224814 0 1 0-71.062224-71.062224L512.000769 312.938543l-426.219754-426.219754a50.224814 50.224814 0 1 0-71.062225 71.062224L440.938545 384.000768 14.71879 810.220523A50.224814 50.224814 0 1 0 85.781015 881.282747L512.000769 455.062993z"  horiz-adv-x="1024" />

    
    <glyph glyph-name="btn_call" unicode="&#59626;" d="M660.2752 327.5264l25.9072-4.1472c85.1968-13.7216 169.3184-33.28 251.904-58.368l5.8368-1.792 5.2736-3.1232c58.5728-34.6624 86.9376-104.1408 69.9392-167.5776-26.624-123.0336-131.9424-213.1968-259.9936-220.5184-149.0432-1.1264-354.6112 106.4448-500.3264 259.6352C83.6608 315.904-17.5104 501.9648 2.5088 660.6848 14.1824 786.2272 114.3296 885.0944 236.4928 894.5664A139.264 139.264 0 0 0 367.104 841.1648l3.584-4.7616 2.5088-5.5296a1401.4464 1401.4464 0 0 0 83.7632-249.9584l6.3488-27.1872L371.3024 458.752a483.5328 483.5328 0 0 1 210.9952-209.408l77.9776 78.1824zM282.624 782.6944c-8.192 8.192-20.224 12.1856-34.816 10.1376-75.776-5.9392-136.2944-65.6896-143.5648-143.2576-15.2576-121.2416 72.96-283.4944 228.7104-447.3344 127.7952-134.4 308.1216-228.7104 422.912-227.9424 79.5136 4.608 146.2784 61.7984 163.84 142.336a49.4592 49.4592 0 0 1-18.3296 52.48 1795.584 1795.584 0 0 1-205.7728 48.7936l-90.368-90.624-31.744 13.312a585.8816 585.8816 0 0 0-310.5792 308.0704l-13.5168 31.3856 101.376 104.5504A1299.0464 1299.0464 0 0 1 282.624 782.6432z"  horiz-adv-x="1024" />

    
    <glyph glyph-name="btn_nav" unicode="&#59627;" d="M23.508938 499.244238a37.986165 37.986165 0 0 1 0-70.238568l363.633055-151.48391c9.41975-3.890766 16.894116-11.313938 20.784882-20.784882l144.060737-361.124535a38.037359 38.037359 0 0 1 70.340957 0l398.803534 948.067091a37.986165 37.986165 0 0 1-49.607269 49.453686L23.508938 499.244238z m565.184982-419.383638l-85.648051 214.811248a141.296245 141.296245 0 0 1-76.689049 77.456964l-220.647398 91.893753L865.706233 738.321581 588.796308 79.8606z"  horiz-adv-x="1024" />

    
    <glyph glyph-name="btn_edit" unicode="&#59628;" d="M511.883802 793.390844a51.18838 51.18838 0 0 0-51.18838-51.18838H153.565141a51.18838 51.18838 0 0 1-51.188381-51.18838v-665.448943a51.18838 51.18838 0 0 1 51.188381-51.188381h665.448943a51.18838 51.18838 0 0 1 51.18838 51.188381v307.130281a51.18838 51.18838 0 1 0 102.376761 0v-307.130281a153.565141 153.565141 0 0 0-153.565141-153.565141H153.565141a153.565141 153.565141 0 0 0-153.565141 153.565141V691.014084a153.565141 153.565141 0 0 0 153.565141 153.565141h307.130281a51.18838 51.18838 0 0 0 51.18838-51.188381z m496.885607 13.769675L490.231118 288.51985a51.956206 51.956206 0 0 0-73.455326 73.455326L935.314084 880.513467a51.905018 51.905018 0 0 0 73.455325-73.352948z"  horiz-adv-x="1024" />

    
    <glyph glyph-name="btn_delete" unicode="&#59630;" d="M307.2 691.2a204.8 204.8 0 1 0 409.6 0h256a51.2 51.2 0 1 0 0-102.4h-51.2v-563.2a153.6 153.6 0 0 0-153.6-153.6H256a153.6 153.6 0 0 0-153.6 153.6V588.8H51.2a51.2 51.2 0 0 0 0 102.4h256z m102.4 0h204.8a102.4 102.4 0 1 1-204.8 0zM256-25.6h512a51.2 51.2 0 0 1 51.2 51.2V588.8H204.8v-563.2a51.2 51.2 0 0 1 51.2-51.2z m153.6 102.4a51.2 51.2 0 0 1 51.2 51.2V435.2a51.2 51.2 0 0 1-102.4 0v-307.2a51.2 51.2 0 0 1 51.2-51.2z m204.8 0a51.2 51.2 0 0 1 51.2 51.2V435.2a51.2 51.2 0 0 1-102.4 0v-307.2a51.2 51.2 0 0 1 51.2-51.2z"  horiz-adv-x="1024" />

    
    <glyph glyph-name="icon_arrow_circle" unicode="&#59633;" d="M512-128c282.752 0 512 229.248 512 512S794.752 896 512 896 0 666.752 0 384s229.248-512 512-512z m0 42.666667C252.8-85.333333 42.666667 124.8 42.666667 384S252.8 853.333333 512 853.333333s469.333333-210.133333 469.333333-469.333333-210.133333-469.333333-469.333333-469.333333zM396.501333 567.168a42.666667 42.666667 0 1 0 60.330667 60.330667l213.333333-213.333334a42.666667 42.666667 0 0 0 0-60.330666l-213.333333-213.333334a42.666667 42.666667 0 1 0-60.330667 60.330667L579.669333 384 396.501333 567.168z"  horiz-adv-x="1024" />

    
    <glyph glyph-name="icon_arrowr" unicode="&#59634;" d="M238.336 750.336A85.333333 85.333333 0 0 0 358.997333 870.997333l426.666667-426.666666a85.333333 85.333333 0 0 0 0-120.661334l-426.666667-426.666666a85.333333 85.333333 0 0 0-120.661333 120.661333L604.672 384 238.336 750.336z"  horiz-adv-x="1024" />

    
    <glyph glyph-name="btn_question" unicode="&#59636;" d="M512 896a512 512 0 0 0 512-512 512 512 0 0 0-512-512 512 512 0 0 0-512 512 512 512 0 0 0 512 512z m0-56.888889a455.111111 455.111111 0 1 1 0-910.222222A455.111111 455.111111 0 0 1 512 839.111111z m-5.461333-621.568c17.066667 0 31.857778-5.461333 43.52-16.384 10.865778-10.979556 17.066667-25.031111 17.066666-42.211555s-6.200889-32.028444-17.863111-42.951112c-11.605333-10.979556-25.6-16.440889-42.666666-16.440888s-31.061333 6.257778-42.723556 17.237333c-11.662222 10.865778-17.066667 24.974222-17.066667 42.097778 0 17.237333 5.404444 31.288889 17.066667 42.268444 11.662222 10.922667 25.6 16.384 42.666667 16.384zM520.533333 668.444444c50.517333 0 91.591111-13.312 122.652445-41.415111 31.061333-27.363556 46.648889-64.853333 46.648889-112.526222 0-39.082667-10.183111-71.111111-28.785778-96.142222-6.940444-7.793778-29.525333-28.899556-66.787556-61.724445-13.937778-11.719111-24.007111-25.031111-31.004444-39.082666a111.047111 111.047111 0 0 1-11.662222-50.801778v-10.922667h-89.315556v10.922667c0 29.696 4.664889 55.466667 15.530667 76.629333 10.126222 21.048889 40.391111 53.930667 90.851555 99.214223l9.329778 10.922666c13.994667 17.237333 20.992 35.953778 20.992 55.523556 0 25.770667-7.793778 46.08-21.788444 60.928-14.791111 14.848-35.669333 21.902222-62.122667 21.902222-34.133333 0-58.197333-10.24-72.931556-32.028444-12.288-16.725333-18.488889-40.220444-19.342222-69.802667a44.544 44.544 0 0 0-76.003555-36.408889 44.600889 44.600889 0 0 0-12.515556 32.256c0.455111 56.547556 16.782222 100.977778 50.460445 133.290667C418.019556 652.003556 463.018667 668.444444 520.533333 668.444444z"  horiz-adv-x="1024" />

    
    <glyph glyph-name="icon_huan" unicode="&#59637;" d="M511.814081 781.951076h2.559992a399.358752 399.358752 0 0 0 105.727669-14.719954L551.173958 698.239338a56.831822 56.831822 0 0 1 40.255874-97.087697 56.575823 56.575823 0 0 1 40.255874 16.575949l128.767598 128.767597a62.847804 62.847804 0 0 1 4.863984 5.439983 56.767823 56.767823 0 0 1-17.791944 86.719729A511.550401 511.550401 0 0 1 515.14207 895.99872h-3.455989a508.79841 508.79841 0 0 1-359.486877-147.647539A508.542411 508.542411 0 0 1 0.00768 387.20031a514.110393 514.110393 0 0 1 57.343821-238.783254 56.959822 56.959822 0 0 1 101.119684 52.287837 392.638773 392.638773 0 0 0-44.607861 185.59942c1.023997 218.687317 179.519439 395.646764 397.950757 395.646763z m454.526579-161.919494a56.831822 56.831822 0 0 1-100.799685-52.607835c29.823907-57.151821 45.311858-121.47162 44.92786-186.111419-1.407996-219.519314-181.311433-396.92676-400.894747-395.518764a394.238768 394.238768 0 0 0-106.687667 15.039953l67.583789 67.583789a56.959822 56.959822 0 1 1-80.639748 80.511749l-128.831598-128.831598a56.831822 56.831822 0 0 1 21.631933-93.951706 510.910403 510.910403 0 0 1 225.919294-54.143831H512.00608a508.286412 508.286412 0 0 1 359.614876 147.711538 508.158412 508.158412 0 0 1 152.319524 360.958872 513.534395 513.534395 0 0 1-57.59982 239.359252z"  horiz-adv-x="1024" />

    
    <glyph glyph-name="icon_location03" unicode="&#59638;" d="M0 896h1023.999431v-1023.999431H0zM512.056604 896c251.050527 0 455.224636-206.563441 455.224636-460.458411 0.398222-114.119048-48.753751-241.94831-126.463929-313.230048l-253.951859-213.333215c-29.35465-23.210654-52.110193-36.86398-74.638181-36.977757-22.527987-0.113778-45.738641 13.311993-74.979514 36.35198L183.18212 122.311541C108.885273 191.147058 56.661302 323.129207 56.888857 435.541589 56.888857 689.436559 261.062966 896 512.056604 896z m231.708316-444.529531c0 127.886151-103.53772 232.049649-230.627427 232.049649a226.815874 226.815874 0 0 1-162.588354-68.437295 232.902982 232.902982 0 0 1-67.356407-164.863909c0.455111-127.886151 103.935942-232.106538 230.570538-232.106537a224.597209 224.597209 0 0 1 162.531465 68.437295 233.244315 233.244315 0 0 1 67.470185 164.807019v0.113778z m-97.848834 0c0-35.953758-13.653326-69.518184-38.513757-94.719947a130.503039 130.503039 0 0 0-93.639059-39.480867 133.290593 133.290593 0 0 0-132.778593 133.518148c0 35.83998 13.653326 69.461295 38.399979 94.60617A133.688815 133.688815 0 0 0 513.706381 584.817951c35.384869 0 68.607962-13.767103 93.639059-39.139534 25.031097-25.258653 38.85509-58.76619 38.570646-94.378614l-0.056889 0.113777z"  horiz-adv-x="1024" />

    
    <glyph glyph-name="icon_bottom_home" unicode="&#59639;" d="M116.549818 279.738182v-236.032c0-91.508364 67.770182-171.287273 158.021818-171.287273h196.654546v345.739636 3.351273h81.454545v-348.858182H749.381818c90.205091 0 158.021818 79.639273 158.021818 171.287273v235.706182h5.12c42.123636-3.118545 84.712727 22.528 103.098182 64.232727 17.454545 39.377455 8.238545 90.624-34.722909 135.354182l-352.814545 367.197091a160.907636 160.907636 0 0 1-232.401455-0.046546L43.054545 479.232c-42.914909-45.242182-52.084364-95.790545-34.90909-135.168 18.478545-41.890909 61.021091-67.490909 106.496-64.279273h1.908363z m529.175273-61.579637l0.093091 9.541819c0.558545 27.554909 0 35.84-8.098909 51.479272-13.032727 25.274182-36.864 35.374545-66.420364 35.374546h-118.690909c-29.602909 0-53.434182-10.146909-66.420364-35.467637-8.052364-15.639273-8.657455-23.924364-8.098909-51.479272l0.093091-9.448728v-252.648727H274.618182c-35.188364 0-64.977455 35.048727-64.977455 78.196364v328.983273H111.290182c-9.541818-0.558545-15.36 2.978909-17.92 8.704a15.453091 15.453091 0 0 0 0.232727 5.864727c1.349818 7.447273 6.237091 16.616727 16.756364 27.694545L462.848 781.963636a67.956364 67.956364 0 0 0 98.164364 0l352.814545-367.243636c16.896-17.547636 18.850909-28.392727 16.756364-33.233455a14.894545 14.894545 0 0 0-14.661818-8.890181l-55.016728 0.093091h-46.545454v-328.797091c0-43.240727-29.742545-78.196364-64.930909-78.196364h-103.703273v252.462545z"  horiz-adv-x="1024" />

    
    <glyph glyph-name="icon_location02" unicode="&#59640;" d="M512 896c242.249143 0 438.857143-189.952 438.857143-424.228571a415.378286 415.378286 0 0 0-128.731429-299.885715L512-128 201.874286 171.885714A415.817143 415.817143 0 0 0 73.142857 471.771429C73.069714 706.194286 269.677714 896 512 896z m0-292.571429a146.285714 146.285714 0 1 1 0-292.571428 146.285714 146.285714 0 0 1 0 292.571428z"  horiz-adv-x="1024" />

    
    <glyph glyph-name="icon_arrow_small" unicode="&#59641;" d="M271.362106-22.397084a63.99944 63.99944 0 0 1 97.279148-83.199272l383.99664 447.99608a63.99944 63.99944 0 0 1 0 83.199272l-383.99664 447.99608a63.99944 63.99944 0 0 1-97.279148-83.199272L619.647058 383.99936l-348.156954-406.396444z"  horiz-adv-x="1024" />

    
    <glyph glyph-name="icon_location01" unicode="&#59642;" d="M822.125714 171.885714L512-128 201.874286 171.885714A415.890286 415.890286 0 0 0 73.142857 471.771429C73.069714 706.194286 269.677714 896 512 896c242.249143 0 438.857143-189.952 438.857143-424.228571a415.378286 415.378286 0 0 0-128.731429-299.885715zM512-26.185143l259.364571 250.806857A342.381714 342.381714 0 0 1 877.714286 471.771429C877.714286 665.088 714.459429 822.857143 512 822.857143 309.394286 822.857143 146.212571 665.161143 146.285714 471.771429c0-92.672 38.107429-181.686857 106.349715-247.296L512-26.331429zM512 310.857143a146.285714 146.285714 0 1 1 0 292.571428 146.285714 146.285714 0 0 1 0-292.571428z m0 73.142857a73.142857 73.142857 0 1 0 0 146.285714 73.142857 73.142857 0 0 0 0-146.285714z"  horiz-adv-x="1024" />

    
    <glyph glyph-name="icon_order_status01" unicode="&#59644;" d="M870.4 588.8a153.6 153.6 0 0 0 153.6-153.6h-256a153.6 153.6 0 0 1-9.0112-306.944L768 128h256v-102.4a153.6 153.6 0 0 0-153.6-153.6H153.6a153.6 153.6 0 0 0-153.6 153.6V435.2a153.6 153.6 0 0 0 153.6 153.6h716.8z m-102.4-204.8a102.4 102.4 0 1 0 0-204.8 102.4 102.4 0 0 0 0 204.8z m20.0704 435.2L861.952 691.2H259.1744L578.2528 875.4176a153.6 153.6 0 0 0 209.8176-56.2688z"  horiz-adv-x="1024" />

    
    <glyph glyph-name="icon_bottom_share" unicode="&#59645;" d="M512 896a43.566545 43.566545 0 0 0 0-87.04A424.96 424.96 0 1 1 937.053091 384 43.52 43.52 0 0 0 1024 384c0-282.810182-229.282909-512-512-512-282.810182 0-512 229.282909-512 512C0 666.856727 229.282909 896 512 896z m263.540364-217.693091a42.775273 42.775273 0 1 0 60.788363 60.136727l74.938182-74.984727a57.762909 57.762909 0 0 0 0-81.826909l-74.938182-74.984727a42.775273 42.775273 0 1 0-60.462545 60.509091l12.753454 12.706909h-55.249454c-150.062545 0-201.029818-63.767273-201.029818-257.163637a42.728727 42.728727 0 1 0-85.504 0c0 238.964364 87.226182 342.621091 286.533818 342.621091h55.249454l-13.079272 12.986182z"  horiz-adv-x="1024" />

    
    <glyph glyph-name="icon_my_shop" unicode="&#59646;" d="M884.3776 844.8C961.4848 844.8 1024 782.8992 1024 706.56v-92.16a138.3936 138.3936 0 0 0-93.0816-130.3552V107.52c0-48.896-19.6096-95.744-54.528-130.3552A187.136 187.136 0 0 0 744.704-76.8h-465.408c-49.408 0-96.768 19.456-131.6864 53.9648A183.3984 183.3984 0 0 0 93.0816 107.52V483.9936A138.3936 138.3936 0 0 0 0 614.4V706.56C0 782.848 62.5152 844.8 139.6224 844.8h744.7552z m-46.592-368.64H186.2144v-368.64c0-50.8928 41.6768-92.16 93.1328-92.16h46.5408v184.32c0 76.3392 62.464 138.24 139.6224 138.24h93.0816c77.1072 0 139.6224-61.9008 139.6224-138.24v-184.32h46.592c24.6784 0 48.3328 9.728 65.792 26.9824a91.648 91.648 0 0 1 27.2896 65.1776V476.16z m-279.2448-230.4H465.4592a46.2848 46.2848 0 0 1-46.592-46.08v-184.32h186.2144v184.32c0 25.4464-20.8384 46.08-46.5408 46.08z m325.8368 506.88H139.6224a46.336 46.336 0 0 1-46.5408-46.08v-92.16c0-12.2368 4.9152-23.9616 13.6192-32.5632 8.7552-8.704 20.5824-13.5168 32.9216-13.5168h744.7552c25.7024 0 46.5408 20.6336 46.5408 46.08V706.56c0 25.4464-20.8384 46.08-46.592 46.08z"  horiz-adv-x="1024" />

    
    <glyph glyph-name="icon_order_status05" unicode="&#59647;" d="M1024 537.6v-460.8a153.6 153.6 0 0 0-153.6-153.6H153.6a153.6 153.6 0 0 0-153.6 153.6V537.6h1024z m-343.3984-117.4016L460.8 200.3968l-117.4016 117.4016a51.2 51.2 0 0 1-72.3968-72.3968L388.4032 128a102.4 102.4 0 0 1 144.7936 0l219.8016 219.8016a51.2 51.2 0 1 1-72.3968 72.3968zM211.5584 844.8h600.8832a102.4 102.4 0 0 0 87.808-49.7152L1024 588.8H0l123.7504 206.2848A102.4 102.4 0 0 0 211.5584 844.8z"  horiz-adv-x="1024" />

    
    <glyph glyph-name="icon_no" unicode="&#59648;" d="M512-128A512 512 0 1 1 512 896a512 512 0 0 1 0-1024z m0 64A448 448 0 1 0 512 832a448 448 0 0 0 0-896zM738.304 610.304c13.056-13.12 14.72-33.792 3.776-48.768a2211.456 2211.456 0 0 0-142.08-177.664c43.84-48.32 91.2-107.52 142.08-177.408a37.632 37.632 0 0 0 0.128-44.16l-3.904-4.608a37.632 37.632 0 0 0-48.768-3.776 2211.456 2211.456 0 0 0-177.664 142.08c-48.32-43.84-107.52-91.2-177.408-142.08a37.632 37.632 0 0 0-44.16-0.128l-4.608 3.904a37.632 37.632 0 0 0-3.776 48.768 2211.456 2211.456 0 0 0 142.08 177.664c-43.84 48.32-91.2 107.52-142.08 177.408a37.632 37.632 0 0 0-0.128 44.16l3.904 4.608a37.632 37.632 0 0 0 48.768 3.776 2211.456 2211.456 0 0 0 177.664-142.08c48.32 43.84 107.52 91.2 177.408 142.08a37.632 37.632 0 0 0 44.16 0.128l4.608-3.904z"  horiz-adv-x="1024" />

    
    <glyph glyph-name="icon_notice" unicode="&#59649;" d="M645.12 896c-7.314286 0-14.482286-2.413714-20.333714-6.875429L210.432 590.262857H18.651429c-10.24 0-18.651429-9.289143-18.651429-20.626286v-371.273142c0-11.264 8.411429-20.553143 18.651429-20.553143h191.780571l414.427429-298.934857a35.108571 35.108571 0 0 1 20.406857-6.802286c19.456 0 37.522286 17.115429 37.522285 41.398857V854.601143C682.715429 878.811429 664.722286 896 645.12 896zM256.512 255.341714l-21.138286 15.067429H84.114286V497.371429h151.259428l20.918857 15.067428L598.381714 759.222857V8.777143L256.512 255.341714z m748.836571 174.957715H855.771429c-10.24 0-18.724571-9.216-18.724572-20.553143v-51.638857c0-11.264 8.484571-20.553143 18.724572-20.553143h149.577142c10.24 0 18.651429 9.289143 18.651429 20.553143v51.638857c0 11.337143-8.411429 20.553143-18.651429 20.553143z m-49.005714-337.554286L827.465143 174.811429a17.773714 17.773714 0 0 1-9.289143 2.706285 18.432 18.432 0 0 1-16.091429-10.24l-23.332571-44.617143a21.942857 21.942857 0 0 1 6.875429-28.16l128.877714-82.066285a17.773714 17.773714 0 0 1 9.216-2.706286 18.578286 18.578286 0 0 1 16.164571 10.24l23.259429 44.617143a22.089143 22.089143 0 0 1-6.802286 28.16v-0.073143zM801.938286 600.502857a18.578286 18.578286 0 0 1 16.164571-10.24 17.846857 17.846857 0 0 1 9.216 2.56l128.877714 82.212572a21.942857 21.942857 0 0 1 6.875429 28.16l-23.186286 44.470857a18.505143 18.505143 0 0 1-16.164571 10.24 17.773714 17.773714 0 0 1-9.216-2.633143L785.554286 673.133714a21.942857 21.942857 0 0 1-6.875429-28.16l23.186286-44.397714z"  horiz-adv-x="1024" />

    
    <glyph glyph-name="icon_order_status03" unicode="&#59650;" d="M499.6096 654.0288c-50.6368 0-84.3776-45.3632-84.3776-99.9936 0-3.072-0.256-6.0416 0-8.96-2.6624-102.0928-80.64-184.2176-173.3632-195.4816l-0.7168-477.44h459.4176c16.896 0 26.5216 4.608 41.984 15.1552a97.792 97.792 0 0 1 33.0752 39.7312c2.048 3.1232 71.7312 327.168 73.5232 346.368a106.8544 106.8544 0 0 1-13.824 60.5184c-17.0496 29.5936-41.8304 41.5744-71.8848 42.8544-1.536 0.256-181.4528 1.024-181.4528 1.024 11.9296 36.864 15.2064 80.64 15.2064 121.856 0 26.112-2.6624 52.224-7.9872 77.7216H588.8c-9.3696 43.9296-45.7216 76.5952-89.1904 76.5952z m-323.7888-306.2272H78.1312c-19.6096 0-35.4816-16.896-35.4816-37.7856v-400.2304c0-20.8384 15.872-37.7856 35.4816-37.7856h97.6896c19.5584 0 35.4304 16.896 35.4304 37.7856v400.2304c0 20.8384-15.872 37.7856-35.4304 37.7856z m77.7728-475.648h-3.4304 0.768c-0.3072 0 0 0 0 0h1.9968c0.256 0 0.3072 0 0 0h0.7168-0.0512zM980.48 759.5008a15.0528 15.0528 0 0 1-10.5984 10.24l-102.912 25.7536-55.4496 93.184A14.7456 14.7456 0 0 1 798.9248 896c-5.1712 0-9.984-2.7648-12.6976-7.3216l-55.4496-93.184-102.912-25.8048a15.0528 15.0528 0 0 1-10.6496-10.1888 15.7696 15.7696 0 0 1 2.816-14.6944l68.608-83.4048-8.0896-109.1072a15.5648 15.5648 0 0 1 6.0928-13.6192 14.4384 14.4384 0 0 1 14.336-1.7408l97.8944 41.6256 97.9456-41.6768c4.7616-2.048 10.24-1.3312 14.3872 1.792a15.5648 15.5648 0 0 1 6.0928 13.6192l-8.0896 109.1072 68.608 83.4048a15.7696 15.7696 0 0 1 2.7648 14.6944z"  horiz-adv-x="1024" />

    
    <glyph glyph-name="icon_order_status02" unicode="&#59651;" d="M512 896C276.4288 896 85.3504 699.392 85.3504 456.96c0-105.5232 39.8848-205.824 106.6496-286.3104L512-128l320 298.6496c66.2528 80.4352 106.6496 180.736 106.6496 286.3104C938.6496 699.392 747.5712 896 512 896z m0-126.464a298.6496 298.6496 0 1 0-298.6496-298.7008A298.3424 298.3424 0 0 0 512 769.4848z m161.1776-164.864a42.6496 42.6496 0 0 1-60.3136 0L449.536 441.344 389.12 501.6064a42.6496 42.6496 0 0 1-60.3136-60.3648l90.4704-90.4704a42.6496 42.6496 0 0 1 60.3648 0l193.536 193.536a42.6496 42.6496 0 0 1 0 60.3136z"  horiz-adv-x="1024" />

    
    <glyph glyph-name="icon_integral_des" unicode="&#59652;" d="M457.881142-70.962233H114.124686c-31.539168 0.0512-57.036743 25.599974-57.087943 57.087943V781.824114c0.0512 31.539168 25.599974 57.036743 57.087943 57.087943h710.911289c31.231969 0 56.678343-25.087975 57.036743-56.319944v-284.518115c-0.4096-10.23999 4.966395-19.91678 13.926386-24.883175a28.159972 28.159972 0 0 1 42.444758 24.883175V782.643313a115.353485 115.353485 0 0 1-32.921568 80.43512A114.022286 114.022286 0 0 1 825.035975 896H114.175886A114.227086 114.227086 0 0 1 0 781.875314V-13.82309a114.892685 114.892685 0 0 1 114.124686-114.175886h343.756456a27.340773 27.340773 0 0 1 24.115176 13.926386c5.119995 8.857591 5.119995 19.71198 0 28.569572a28.006372 28.006372 0 0 1-24.115176 14.591985z m281.599719 511.999488a284.518115 284.518115 0 1 1 0-569.036231 284.518115 284.518115 0 0 1 0 569.036231z m0-57.036743a227.481373 227.481373 0 1 0 0-454.962745 227.481373 227.481373 0 0 0 0 454.962745zM213.503786 640.000256h512.767488c15.718384 0 28.518371 12.799987 28.518371 28.518371a29.235171 29.235171 0 0 1-28.518371 28.518372H213.503786a29.235171 29.235171 0 0 1-24.831975-14.591985A28.159972 28.159972 0 0 1 213.503786 640.000256z m0-198.963001H511.999488a28.159972 28.159972 0 0 1 24.883175 42.444758 29.286371 29.286371 0 0 1-24.883175 14.643185H213.554986a29.235171 29.235171 0 0 1-24.831975-14.643185 28.159972 28.159972 0 0 1 24.831975-42.444758z m546.917854-142.182258a40.959959 40.959959 0 0 0 18.687981-18.687981l24.831975-50.43195 55.705544-8.089592a40.959959 40.959959 0 0 0 22.732778-69.83673l-40.44796-39.47516 9.57439-55.603145a40.959959 40.959959 0 0 0-59.49434-43.161557l-49.66395 26.163174-49.663951-26.111974a40.959959 40.959959 0 0 0-59.49434 43.110357l9.52319 55.603145-40.396759 39.47516a40.959959 40.959959 0 0 0 22.732777 69.83673l55.705544 8.089592 24.831975 50.43195a40.959959 40.959959 0 0 0 54.835146 18.687981z m-18.073582-59.90394l-27.545573-55.961544-61.900738-9.011191 44.799955-43.827156-10.547189-61.593539 55.193545 29.081571 55.193544-29.081571-10.547189 61.593539 44.799955 43.827156-61.951938 9.011191-27.494372 55.910344z m-400.8444 59.494341a27.340773 27.340773 0 0 0 24.166376-13.926387c5.119995-8.806391 5.119995-19.71198 0-28.518371a27.340773 27.340773 0 0 0-24.166376-13.875186h-127.999872a28.159972 28.159972 0 1 0 0 56.319944z"  horiz-adv-x="1024" />

    
    <glyph glyph-name="icon_bottom_call" unicode="&#59653;" d="M333.358545 754.036364l128.698182-126.417455c21.876364-21.504 32.861091-45.707636 32.861091-75.264 0-29.602909-10.938182-56.506182-32.861091-75.310545L410.018909 425.890909a24.203636 24.203636 0 0 1-8.192-18.804364 24.203636 24.203636 0 0 1 8.192-18.804363l161.512727-158.72a26.810182 26.810182 0 0 1 38.353455 0l57.530182 53.806545c43.752727 40.354909 109.474909 40.354909 150.574545-2.699636l128.651637-126.370909c41.099636-40.354909 41.099636-110.266182 0-150.574546l-57.483637-56.459636a60.043636 60.043636 0 0 0-8.657454-5.352727C826.740364-105.378909 753.477818-128 675.607273-128c-139.636364 0-298.402909 67.211636-429.847273 196.282182C41.425455 269.032727-13.730909 543.045818 117.76 691.898182a39.191273 39.191273 0 0 0 4.794182 5.678545L180.037818 754.036364c41.099636 40.308364 112.267636 40.308364 153.320727 0zM245.294545 687.616L191.301818 634.600727l-3.770182-4.328727c-93.789091-106.123636-48.872727-326.283636 123.485091-495.569455C422.120727 25.6 557.242182-34.909091 675.607273-34.909091c59.019636 0 109.288727 16.756364 143.406545 46.731636l8.983273 7.912728 4.282182 2.187636 49.152 48.267636c3.909818 3.816727 3.909818 13.870545 0 17.733819l-130.792728 128.558545c-5.026909 5.259636-12.706909 5.352727-19.642181-1.024l-55.854546-52.224a119.854545 119.854545 0 0 0-168.820363 0l-161.512728 158.626909a116.829091 116.829091 0 0 0-36.072727 85.271273c0 33.698909 13.125818 62.696727 36.072727 85.224727l52.037818 51.106909 4.51491 4.189091c0.186182 0.139636 0.465455 0.744727 0.465454 4.654546 0 3.723636-0.279273 4.235636-4.980364 8.890181L268.101818 687.616c-4.840727 4.747636-18.013091 4.747636-22.853818 0zM420.677818 862.021818A46.545455 46.545455 0 0 0 478.021818 894.231273c92.904727-26.158545 151.179636-83.595636 172.357818-173.800728a46.545455 46.545455 0 1 0-90.624-21.271272c-13.172364 56.180364-45.707636 88.250182-106.961454 105.472A46.545455 46.545455 0 0 0 420.677818 862.068364z"  horiz-adv-x="1024" />

    
    <glyph glyph-name="icon_selector_enable" unicode="&#59654;" d="M512 896c282.752 0 512-229.248 512-512s-229.248-512-512-512S0 101.248 0 384 229.248 896 512 896z m248.789333-327.509333a24.32 24.32 0 0 1-33.834666 1.237333L445.013333 316.586667l-149.632 118.528a24.490667 24.490667 0 0 1-32.64-1.877334 23.296 23.296 0 0 1-0.853333-31.872l183.850667-203.562666a16.981333 16.981333 0 0 1 25.728 0.128l290.304 335.786666a25.856 25.856 0 0 1-0.981334 34.730667z"  horiz-adv-x="1024" />

    
    <glyph glyph-name="icon_photo" unicode="&#59655;" d="M653.568 844.8a102.4 102.4 0 0 0 91.584-56.64L768 742.4h51.2A204.8 204.8 0 0 0 1024 537.6V128a204.8 204.8 0 0 0-204.8-204.8H204.8A204.8 204.8 0 0 0 0 128V537.6a204.8 204.8 0 0 0 204.8 204.8H256l22.912 45.824A102.4 102.4 0 0 0 370.432 844.8h283.136zM512 512a204.8 204.8 0 1 1 0-409.6A204.8 204.8 0 0 1 512 512z m0-76.8a128 128 0 1 0 0-256 128 128 0 0 0 0 256z m307.2 179.2a76.8 76.8 0 1 1 0-153.6 76.8 76.8 0 0 1 0 153.6z"  horiz-adv-x="1024" />

    
    <glyph glyph-name="icon_record" unicode="&#59656;" d="M895.8976 896a76.8 76.8 0 0 0 76.8-76.8v-659.2h-204.8a76.8 76.8 0 0 1-76.8-76.8V-128H128A76.8 76.8 0 0 0 51.2-51.2v870.4A76.8 76.8 0 0 0 128 896z m76.8-780.8L735.8976-128v179.2a64 64 0 0 0 64 64h172.8zM326.4512 286.1056a9.3696 9.3696 0 0 1-12.1344-6.4512l-40.96-140.1344a7.0656 7.0656 0 0 1 0-5.12 10.0864 10.0864 0 0 1 12.1344-6.4l142.7456 39.68a10.3424 10.3424 0 0 1 4.4544 2.56 8.192 8.192 0 0 1-0.6144 12.8l-101.12 100.4544a15.9744 15.9744 0 0 1-4.5056 2.56z m278.4256 294.4l-273.3056-271.36 124.8256-124.2112 273.2032 272.0256-124.7232 123.4944z m97.8432 51.2a34.048 34.048 0 0 1-47.36-1.9456c-1.28-0.6656-1.8944-1.8944-2.56-2.56l-34.5088-34.56 124.8256-124.16 37.12 37.12-1.3312 1.8944 0.6144 0.6656a33.2288 33.2288 0 0 1 0.6656 46.7456z"  horiz-adv-x="1024" />

    
    <glyph glyph-name="icon_yes" unicode="&#59657;" d="M512-128A512 512 0 1 1 512 896a512 512 0 0 1 0-1024z m0 64A448 448 0 1 0 512 832a448 448 0 0 0 0-896zM445.056 316.608l281.92 253.12a24.32 24.32 0 0 0 33.856-1.28c9.152-9.472 9.6-24.64 0.96-34.688l-290.368-335.808a16.96 16.96 0 0 0-25.664-0.128L261.888 401.408a23.296 23.296 0 0 0 0.832 31.872 24.512 24.512 0 0 0 32.64 1.92l149.696-118.592z"  horiz-adv-x="1024" />

    
    <glyph glyph-name="icon_saoma" unicode="&#59658;" d="M51.2 281.6a25.6 25.6 0 0 0 25.6-25.6v-230.4a76.8 76.8 0 0 1 76.8-76.8h230.4a25.6 25.6 0 0 0 25.6-25.6v-25.6a25.6 25.6 0 0 0-25.6-25.6H153.6a153.6 153.6 0 0 0-153.6 153.6v230.4a25.6 25.6 0 0 0 25.6 25.6h25.6z m947.2 0a25.6 25.6 0 0 0 25.6-25.6v-230.4a153.6 153.6 0 0 0-153.6-153.6h-230.4a25.6 25.6 0 0 0-25.6 25.6v25.6a25.6 25.6 0 0 0 25.6 25.6h230.4a76.8 76.8 0 0 1 76.8 76.8v230.4a25.6 25.6 0 0 0 25.6 25.6h25.6z m-89.6 140.8a38.4 38.4 0 0 0 0-76.8h-793.6a38.4 38.4 0 0 0 0 76.8h793.6zM870.4 896a153.6 153.6 0 0 0 153.6-153.6v-230.4a25.6 25.6 0 0 0-25.6-25.6h-25.6a25.6 25.6 0 0 0-25.6 25.6V742.4a76.8 76.8 0 0 1-76.8 76.8h-230.4a25.6 25.6 0 0 0-25.6 25.6V870.4a25.6 25.6 0 0 0 25.6 25.6h230.4zM384 896a25.6 25.6 0 0 0 25.6-25.6v-25.6a25.6 25.6 0 0 0-25.6-25.6H153.6a76.8 76.8 0 0 1-76.8-76.8v-230.4a25.6 25.6 0 0 0-25.6-25.6H25.6a25.6 25.6 0 0 0-25.6 25.6V742.4a153.6 153.6 0 0 0 153.6 153.6h230.4z"  horiz-adv-x="1024" />

    
    <glyph glyph-name="tabbar01" unicode="&#59659;" d="M512 849.454545c16.011636 0 31.092364-8.843636 40.448-23.691636l187.997091-298.728727 218.298182 81.454545a45.335273 45.335273 0 0 0 49.152-12.055272c13.218909-13.870545 18.897455-34.769455 14.801454-54.737455l-114.641454-606.999273c-2.280727-9.541818-9.867636-16.151273-18.478546-16.151272H134.888727c-8.704-0.139636-16.384 6.516364-18.525091 16.151272L1.396364 541.556364c-4.189091 20.014545 1.489455 40.96 14.754909 54.877091a45.335273 45.335273 0 0 0 49.198545 12.101818l218.205091-81.501091 188.043636 298.728727c9.309091 14.894545 24.389818 23.691636 40.401455 23.691636z m217.553455-465.454545l-3.630546-0.186182H597.178182l24.669091-8.610909c4.933818-1.861818 8.936727-5.725091 11.170909-10.705454a18.292364 18.292364 0 0 0-0.279273-15.080728l-137.029818-182.458182-63.022546 216.855273H279.272727l32.814546-11.450182c10.007273-2.513455 18.152727-10.007273 21.876363-20.014545L416.256 58.181818h95.976727a35.467636 35.467636 0 0 1 32.861091 17.221818l197.352727 285.463273a14.289455 14.289455 0 0 1-0.465454 16.290909 16.802909 16.802909 0 0 1-16.011636 6.609455z"  horiz-adv-x="1024" />

    
    <glyph glyph-name="icon_pay_wechat" unicode="&#59660;" d="M372.599467 262.929067a31.812267 31.812267 0 0 0-15.36-3.618134 33.518933 33.518933 0 0 0-29.696 18.1248l-2.423467 4.778667-93.730133 208.110933c-1.160533 2.4576-1.160533 4.778667-1.160534 7.236267a16.384 16.384 0 0 0 16.657067 16.964267c3.549867 0 7.099733-1.160533 10.6496-3.618134l110.3872-79.872c8.260267-4.778667 17.749333-8.3968 28.433067-8.3968 5.973333 0 11.810133 1.160533 17.783466 3.618134l517.495467 234.632533C839.0656 772.1984 686.08 844.8 512.682667 844.8 230.229333 844.8 0 650.0352 0 409.429333c0-130.594133 68.846933-249.1392 176.810667-328.977066 8.226133-6.075733 14.199467-16.964267 14.199466-27.818667a33.860267 33.860267 0 0 0-2.389333-10.888533c-8.260267-32.631467-22.6304-85.9136-22.6304-88.2688a45.056 45.056 0 0 1-2.389333-13.312 16.384 16.384 0 0 1 16.622933-16.964267 13.312 13.312 0 0 1 9.557333 3.618133l111.479467 66.56c8.260267 4.778667 17.749333 8.3968 27.306667 8.3968 4.7104 0 10.6496-1.194667 15.36-2.4576 52.224-15.701333 109.226667-24.234667 167.389866-24.234666 282.453333 0 512.682667 194.798933 512.682667 435.4048 0 72.6016-21.333333 141.448533-58.1632 202.001066L376.183467 265.386667l-3.584-2.4576z"  horiz-adv-x="1024" />

    
    <glyph glyph-name="icon_order_status07" unicode="&#59661;" d="M835.941914 780.952237H755.711634c-8.447987 37.529544-43.366335 67.071899-83.148675 67.071899H582.143895A75.059087 75.059087 0 0 1 511.641601 895.998464C480.307248 895.998464 452.608089 876.900893 441.139306 848.024136h-92.159861c-40.447939 0-74.751888-28.927957-83.199876-67.071899H185.54929c-47.615929 0-83.148675-39.423941-83.148676-87.398269v-734.206899C102.400614-88.576059 139.776558-128 185.54929-128h648.549427c47.615929 0 87.398269 39.423941 87.398269 87.398269V693.605168c2.406396 47.974328-37.990343 87.347069-85.555072 87.347069z m-453.784919-279.551581L512 371.557651l129.843005 129.843005a51.199923 51.199923 0 0 0 72.396692-72.396692l-129.843006-129.843005 129.843006-129.791805a51.199923 51.199923 0 1 0-72.396692-72.447891L512 226.815468l-129.843005-129.843005a51.199923 51.199923 0 0 0-72.396692 72.447891l129.843006 129.791805L309.760303 429.003964a51.199923 51.199923 0 0 0 72.396692 72.396692zM512 742.398694c28.723157 0 51.199923-23.551965 51.199923-51.199923 0-28.979157-23.347165-51.199923-51.199923-51.199923-28.723157 0-51.199923 23.551965-51.199923 51.199923s22.476766 51.199923 51.199923 51.199923z"  horiz-adv-x="1024" />

    
    <glyph glyph-name="tabbar04" unicode="&#59662;" d="M1024 9.402182C1024-66.466909 964.561455-128 891.252364-128H130.048v0.279273C58.042182-126.231273 0-65.536 0 9.448727c0 27.229091 7.912727 52.363636 21.038545 73.728l-2.327272 0.930909C108.357818 214.295273 295.237818 290.909091 512 290.909091c211.130182 0 394.24-71.959273 486.4-196.608l-2.094545-1.722182c17.175273-23.179636 27.694545-51.712 27.694545-83.083636l0.046545-0.093091z m-512 350.487273c-134.656 0-243.805091 120.040727-243.805091 268.101818C268.194909 775.959273 377.344 896 512 896c134.656 0 243.805091-119.994182 243.805091-268.055273 0-148.014545-109.149091-268.055273-243.805091-268.055272z"  horiz-adv-x="1024" />

    
    <glyph glyph-name="icon_order_status06" unicode="&#59663;" d="M835.941914 780.952237H755.711634c-8.447987 37.529544-43.366335 67.071899-83.148675 67.071899H582.143895A75.059087 75.059087 0 0 1 511.641601 895.998464C480.307248 895.998464 452.608089 876.900893 441.139306 848.024136h-92.159861c-40.447939 0-74.751888-28.927957-83.199876-67.071899H185.54929c-47.615929 0-83.148675-39.423941-83.148676-87.398269v-734.206899C102.400614-88.576059 139.776558-128 185.54929-128h648.549427c47.615929 0 87.398269 39.423941 87.398269 87.398269V693.605168c2.406396 47.974328-37.990343 87.347069-85.555072 87.347069z m-83.046275-360.857059a51.609523 51.609523 0 0 0 0-73.062291l-277.401184-277.349984a51.609523 51.609523 0 0 0-73.011091 0l-131.379003 131.327803a51.609523 51.609523 0 0 0 73.062291 73.011091L438.98891 179.199539l240.844438 240.895639a51.609523 51.609523 0 0 0 73.062291 0zM512 742.398694c28.723157 0 51.199923-23.551965 51.199923-51.199923 0-28.979157-23.347165-51.199923-51.199923-51.199923-28.723157 0-51.199923 23.551965-51.199923 51.199923s22.476766 51.199923 51.199923 51.199923z"  horiz-adv-x="1024" />

    
    <glyph glyph-name="icon_order_status04" unicode="&#59664;" d="M768.512 186.368c58.88 0 106.496-47.4112 106.496-105.984 0-58.624-47.616-105.984-106.496-105.984s-106.496 47.36-106.496 105.984c0 58.5728 47.616 105.984 106.496 105.984z m-510.976 0.512c58.368 0 105.984-46.8992 105.984-105.472 0-58.112-47.616-105.472-105.984-105.472-58.368 0-105.984 46.848-105.984 105.472 0 58.5728 47.616 105.472 105.984 105.472zM629.248 793.6c33.28-6.656 53.76-32.6144 53.76-67.2256v-102.4h174.08L1024 322.8672v-201.216h-91.648a168.96 168.96 0 0 1-164.864 128.8704 168.448 168.448 0 0 1-164.864-128.8704H422.4a168.96 168.96 0 0 1-164.864 128.8704 168.448 168.448 0 0 1-164.864-128.8704H0V688.64C0 757.0432 21.0944 793.6 92.16 793.6z m182.272-251.1872h-121.856v-210.3808h244.224l-122.368 210.432z"  horiz-adv-x="1024" />

    
    <glyph glyph-name="icon_pay_balance" unicode="&#59665;" d="M635.630439 714.168365h-247.260878C194.219938 647.642764 34.135245 436.767874 34.135245 234.665216 34.135245-9.284742 175.310147-128 512-128s477.864755 118.715258 477.864755 362.665216c0 202.068525-160.084693 413.011681-354.234316 479.503149z m8.806365-561.491088l-82.158605-0.034133v-40.379572h-0.443732a49.390736 49.390736 0 0 0-24.234569-53.17952 51.882459 51.882459 0 0 0-51.199796 0 49.390736 49.390736 0 0 0-24.234569 53.17952h-0.819197v40.379572h-81.305275v0.034133l-0.204799-0.034133c-22.459643 0.341332-40.447838 18.158861-40.447838 40.072373 0 21.913512 17.988195 39.765174 40.447838 40.106506h0.204799v0.1024h81.305275v39.93584h-81.305275v0.068267h-0.204799c-22.42551 0.341332-40.379572 18.192994-40.379572 40.072373 0 21.845246 17.954062 39.696908 40.379572 40.072373h0.204799v0.102399h74.137304a19.080457 19.080457 0 0 0 3.481586 7.065572l-91.272169 89.940974c-11.263955 11.127422-7.611703 32.767869 8.226101 48.400873 15.80367 15.564738 37.785449 19.182857 49.083537 8.089567l89.190043-87.961248 82.602336 86.80072c12.902348 13.823945 38.911844 10.478891 54.886181-5.393045 15.837803-15.769537 23.824971-30.139613 8.123701-47.547544l-96.050816-96.801746c-0.1024-0.887463 0.170666-1.70666 0-2.594123h81.987939v-0.102399c22.42551-0.341332 40.413705-18.192994 40.413705-40.072373 0-21.879379-17.988195-39.731041-40.413705-40.072373v-0.068267h-82.158605v-39.93584h82.158605v-0.136533c22.42551-0.341332 40.447838-18.158861 40.447838-40.072373 0-21.879379-18.022328-39.731041-40.447838-40.03824z m70.997049 683.175934l-8.567432-10.513024-0.511998-0.648531-72.294111-89.087644h-244.018224L317.918643 824.589256a17.339664 17.339664 0 0 0-1.365328 1.672527l-7.850635 9.625561 1.365328 2.730656a29.388682 29.388682 0 0 0-1.535994 7.509303 30.037213 30.037213 0 0 0 19.558322 27.989222l0.921596 1.877326S428.988065 895.654572 512.068266 895.995904c86.868986 0.341332 182.988068-20.036187 182.988068-20.036187l1.023996-1.911459a30.10548 30.10548 0 0 0 19.387656-27.920955 29.013217 29.013217 0 0 0-1.501861-7.37277l1.433595-2.901322z"  horiz-adv-x="1024" />

    
    <glyph glyph-name="tabbar03" unicode="&#59666;" d="M1024 430.545455v-325.818182a139.636364 139.636364 0 0 0-139.636364-139.636364H139.636364a139.636364 139.636364 0 0 0-139.636364 139.636364v325.818182h1024zM172.869818 337.454545H93.090909l119.668364-139.636363L93.090909 58.181818h79.778909l119.714909 139.636364-119.714909 139.636363z m179.525818 0H272.616727l119.714909-139.636363-119.714909-139.636364h79.778909l119.714909 139.636364-119.714909 139.636363z m179.572364 0H452.142545l119.71491-139.636363-119.71491-139.636364h79.825455L651.636364 197.818182l-119.668364 139.636363zM884.363636 802.909091a139.636364 139.636364 0 0 0 139.636364-139.636364v-139.636363H0V663.272727a139.636364 139.636364 0 0 0 139.636364 139.636364h744.727272zM193.954909 709.818182h-93.090909v-93.090909h93.090909V709.818182z"  horiz-adv-x="1024" />

    
    <glyph glyph-name="icon_star" unicode="&#59667;" d="M489.35712-24.416l-208.768-96.096a81.344 81.344 0 0 0-85.12 10.56c-24.608 19.488-37.696 51.488-34.368 84.064l23.296 227.52a64.16 64.16 0 0 1-15.072 48.64L23.18112 417.664c-21.248 24.352-28.544 59.104-19.104 90.88 9.472 31.744 34.208 55.552 64.704 62.24l217.76 47.68a57.408 57.408 0 0 1 37.696 28.64l113.92 204.032C453.67712 878.976 481.74112 896 512.01312 896c30.272 0 58.304-17.024 73.856-44.864l113.92-204.032a57.6 57.6 0 0 1 37.696-28.64l217.792-47.68c30.496-6.72 55.232-30.496 64.704-62.24 9.44-31.776 2.144-66.528-19.104-90.88l-146.08-167.36c-11.424-13.12-16.96-30.848-15.136-48.64l23.264-227.552c3.296-32.576-9.76-64.576-34.368-84.064a81.344 81.344 0 0 0-85.12-10.56l-208.736 96.096a53.824 53.824 0 0 1-45.312 0z"  horiz-adv-x="1024" />

    
    <glyph glyph-name="tabbar02" unicode="&#59669;" d="M515.164928 895.953457c144.097326 0 261.385847-113.797791 261.153132-253.613155 0-4.188876-0.511974-8.377752-1.535921-12.287369h81.171103a65.160289 65.160289 0 0 0 64.136342-61.390302l33.976437-635.312822c0.977404-16.010814-4.654306-31.788913-15.591926-43.424679-10.984163-11.635766-26.250288-18.151795-42.121473-17.919079H127.554292a56.642909 56.642909 0 0 0-42.028387 17.965622 58.085744 58.085744 0 0 0-15.591926 43.378136l33.976437 635.312822a65.160289 65.160289 0 0 0 64.136342 61.436845l87.268244-0.046543a49.661449 49.661449 0 0 0-1.535921 12.287369C253.779081 782.155666 371.067602 895.953457 515.164928 895.953457z m78.518149-394.219752c1.396292 8.517381-3.351101 11.449594-9.075897 4.002704l-219.683262-276.372714c-6.609115-8.191579-3.351101-14.89378 6.98146-14.89378h83.684429a15.731556 15.731556 0 0 0 12.566627-5.585168c3.118385-3.630359 4.421591-8.563924 3.537273-13.311316l-28.8567-196.318644c-1.256663-8.470838 4.09579-9.680957 8.517381-3.490729l210.09539 284.797008 0.511974 0.60506a7.260718 7.260718 0 0 1 0.60506 1.815179 3.909617 3.909617 0 0 1-3.258015 3.583816h-78.983579a15.917728 15.917728 0 0 0-16.057357 18.896484z m-78.657778 292.011184c-86.011582 0-155.919264-67.90633-155.919264-151.404587 0-4.188876-0.558517-8.377752-1.582464-12.287369h315.096543a49.661449 49.661449 0 0 0-1.582465 12.287369c0 83.498257-69.954225 151.404587-155.965807 151.404587z"  horiz-adv-x="1024" />

    


  </font>
</defs>
</svg>
